<svg width="1320" height="280" viewBox="0 0 1320 280" fill="none" xmlns="http://www.w3.org/2000/svg">
  <rect width="1320" height="280" rx="20" fill="#0B1F3A"/>
  <text x="48" y="54" fill="#E8F4FF" font-family="Segoe UI, Arial, sans-serif" font-size="28" font-weight="700">DevTrace Pipeline</text>

  <g>
    <rect x="48" y="90" width="220" height="132" rx="14" fill="#12365E"/>
    <text x="72" y="136" fill="#E8F4FF" font-family="Segoe UI, Arial, sans-serif" font-size="20" font-weight="600">Capture</text>
    <text x="72" y="168" fill="#A8CCEB" font-family="Segoe UI, Arial, sans-serif" font-size="16">run duration</text>
    <text x="72" y="190" fill="#A8CCEB" font-family="Segoe UI, Arial, sans-serif" font-size="16">exit code, diff</text>
  </g>

  <g>
    <rect x="306" y="90" width="220" height="132" rx="14" fill="#12365E"/>
    <text x="330" y="136" fill="#E8F4FF" font-family="Segoe UI, Arial, sans-serif" font-size="20" font-weight="600">Store</text>
    <text x="330" y="168" fill="#A8CCEB" font-family="Segoe UI, Arial, sans-serif" font-size="16">local sqlite</text>
    <text x="330" y="190" fill="#A8CCEB" font-family="Segoe UI, Arial, sans-serif" font-size="16">export dataset</text>
  </g>

  <g>
    <rect x="564" y="90" width="220" height="132" rx="14" fill="#12365E"/>
    <text x="588" y="136" fill="#E8F4FF" font-family="Segoe UI, Arial, sans-serif" font-size="20" font-weight="600">Train</text>
    <text x="588" y="168" fill="#A8CCEB" font-family="Segoe UI, Arial, sans-serif" font-size="16">xgboost trees</text>
    <text x="588" y="190" fill="#A8CCEB" font-family="Segoe UI, Arial, sans-serif" font-size="16">baseline model</text>
  </g>

  <g>
    <rect x="822" y="90" width="220" height="132" rx="14" fill="#12365E"/>
    <text x="846" y="136" fill="#E8F4FF" font-family="Segoe UI, Arial, sans-serif" font-size="20" font-weight="600">Score</text>
    <text x="846" y="168" fill="#A8CCEB" font-family="Segoe UI, Arial, sans-serif" font-size="16">predictions 0 to 100</text>
    <text x="846" y="190" fill="#A8CCEB" font-family="Segoe UI, Arial, sans-serif" font-size="16">top contributors</text>
  </g>

  <g>
    <rect x="1080" y="90" width="192" height="132" rx="14" fill="#12365E"/>
    <text x="1104" y="136" fill="#E8F4FF" font-family="Segoe UI, Arial, sans-serif" font-size="20" font-weight="600">Improve</text>
    <text x="1104" y="168" fill="#A8CCEB" font-family="Segoe UI, Arial, sans-serif" font-size="16">retrain weekly</text>
    <text x="1104" y="190" fill="#A8CCEB" font-family="Segoe UI, Arial, sans-serif" font-size="16">better labels</text>
  </g>

  <path d="M272 156H298" stroke="#57B4E8" stroke-width="4" stroke-linecap="round"/>
  <path d="M530 156H556" stroke="#57B4E8" stroke-width="4" stroke-linecap="round"/>
  <path d="M788 156H814" stroke="#57B4E8" stroke-width="4" stroke-linecap="round"/>
  <path d="M1046 156H1072" stroke="#57B4E8" stroke-width="4" stroke-linecap="round"/>
</svg>
